# xmcd
#
# Track frame offsets:
# 150
# 17620
# 32917
# 48248
# 59311
# 76441
# 96003
# 112900
# 125167
# 136259
#
# Disc length: 1972 seconds
#
#
# Revision: 1
# Processed by: cddbd v1.5.1PL2 Copyright (c) Steve Scherf et al.
# Submitted via: FreeRIP 2.945 
#
DISCID=7d07b20a
DTITLE=Brylho - Brylho
DYEAR=1983
DGENRE=Latin
TTITLE0=Destrava Maria
TTITLE1=Jóia rara
TTITLE2=Pé de guerra
TTITLE3=Meditando
TTITLE4=Cheque sem fundos
TTITLE5=Noite do prazer
TTITLE6=Se você for aSalvador
TTITLE7=171
TTITLE8=Pantomina
TTITLE9=Jane e Julia
EXTD=
EXTT0=
EXTT1=
EXTT2=
EXTT3=
EXTT4=
EXTT5=
EXTT6=
EXTT7=
EXTT8=
EXTT9=
PLAYORDER=
